<svg xmlns="http://www.w3.org/2000/svg" xmlns:xlink="http://www.w3.org/1999/xlink" width="500" zoomAndPan="magnify" viewBox="0 0 375 374.999991" height="500" preserveAspectRatio="xMidYMid meet" version="1.0"><defs><clipPath id="012537db7c"><path d="M 203 6 L 368.855469 6 L 368.855469 305.144531 L 203 305.144531 Z M 203 6 " clip-rule="nonzero"/></clipPath><clipPath id="66dfaa9542"><path d="M 368.226562 187.5 C 368.226562 287.308594 287.308594 368.226562 187.496094 368.226562 C 87.6875 368.226562 6.777344 287.308594 6.777344 187.5 C 6.777344 87.6875 87.6875 6.773438 187.496094 6.773438 C 287.308594 6.773438 368.226562 87.6875 368.226562 187.5 Z M 368.226562 187.5 " clip-rule="nonzero"/></clipPath><clipPath id="4c7b191d5c"><path d="M 6 6 L 299.453125 6 L 299.453125 368.855469 L 6 368.855469 Z M 6 6 " clip-rule="nonzero"/></clipPath><clipPath id="2046dc85a6"><path d="M 368.226562 187.5 C 368.226562 287.308594 287.308594 368.226562 187.496094 368.226562 C 87.6875 368.226562 6.777344 287.308594 6.777344 187.5 C 6.777344 87.6875 87.6875 6.773438 187.496094 6.773438 C 287.308594 6.773438 368.226562 87.6875 368.226562 187.5 Z M 368.226562 187.5 " clip-rule="nonzero"/></clipPath><clipPath id="1cac86b0e2"><path d="M 309 245 L 368.855469 245 L 368.855469 350 L 309 350 Z M 309 245 " clip-rule="nonzero"/></clipPath><clipPath id="f635957873"><path d="M 368.226562 187.5 C 368.226562 287.308594 287.308594 368.226562 187.496094 368.226562 C 87.6875 368.226562 6.777344 287.308594 6.777344 187.5 C 6.777344 87.6875 87.6875 6.773438 187.496094 6.773438 C 287.308594 6.773438 368.226562 87.6875 368.226562 187.5 Z M 368.226562 187.5 " clip-rule="nonzero"/></clipPath><clipPath id="24f818ed56"><path d="M 6 199.332031 L 50 199.332031 L 50 244.84375 L 6 244.84375 Z M 6 199.332031 " clip-rule="nonzero"/></clipPath><clipPath id="d2cab37c06"><path d="M 368.226562 187.5 C 368.226562 287.308594 287.308594 368.226562 187.496094 368.226562 C 87.6875 368.226562 6.777344 287.308594 6.777344 187.5 C 6.777344 87.6875 87.6875 6.773438 187.496094 6.773438 C 287.308594 6.773438 368.226562 87.6875 368.226562 187.5 Z M 368.226562 187.5 " clip-rule="nonzero"/></clipPath><clipPath id="439a1ecc2b"><path d="M 92 121.964844 L 266.460938 121.964844 L 266.460938 264 L 92 264 Z M 92 121.964844 " clip-rule="nonzero"/></clipPath><clipPath id="62a232f4a4"><path d="M 368.226562 187.5 C 368.226562 287.308594 287.308594 368.226562 187.496094 368.226562 C 87.6875 368.226562 6.777344 287.308594 6.777344 187.5 C 6.777344 87.6875 87.6875 6.773438 187.496094 6.773438 C 287.308594 6.773438 368.226562 87.6875 368.226562 187.5 Z M 368.226562 187.5 " clip-rule="nonzero"/></clipPath><clipPath id="e76894db98"><path d="M 171 170 L 205 170 L 205 205 L 171 205 Z M 171 170 " clip-rule="nonzero"/></clipPath><clipPath id="a33988a8f8"><path d="M 368.226562 187.5 C 368.226562 287.308594 287.308594 368.226562 187.496094 368.226562 C 87.6875 368.226562 6.777344 287.308594 6.777344 187.5 C 6.777344 87.6875 87.6875 6.773438 187.496094 6.773438 C 287.308594 6.773438 368.226562 87.6875 368.226562 187.5 Z M 368.226562 187.5 " clip-rule="nonzero"/></clipPath><clipPath id="0acb98d598"><path d="M 181.128906 182.265625 L 195 182.265625 L 195 197 L 181.128906 197 Z M 181.128906 182.265625 " clip-rule="nonzero"/></clipPath><clipPath id="259c2418f6"><path d="M 368.226562 187.5 C 368.226562 287.308594 287.308594 368.226562 187.496094 368.226562 C 87.6875 368.226562 6.777344 287.308594 6.777344 187.5 C 6.777344 87.6875 87.6875 6.773438 187.496094 6.773438 C 287.308594 6.773438 368.226562 87.6875 368.226562 187.5 Z M 368.226562 187.5 " clip-rule="nonzero"/></clipPath><clipPath id="5ed0406905"><path d="M 65.078125 232 L 74 232 L 74 357 L 65.078125 357 Z M 65.078125 232 " clip-rule="nonzero"/></clipPath><clipPath id="56bc38a31a"><path d="M 368.226562 187.5 C 368.226562 287.308594 287.308594 368.226562 187.496094 368.226562 C 87.6875 368.226562 6.777344 287.308594 6.777344 187.5 C 6.777344 87.6875 87.6875 6.773438 187.496094 6.773438 C 287.308594 6.773438 368.226562 87.6875 368.226562 187.5 Z M 368.226562 187.5 " clip-rule="nonzero"/></clipPath></defs><g clip-path="url(#012537db7c)"><g clip-path="url(#66dfaa9542)"><path fill="#f8b496" d="M 409.621094 233.519531 C 409.621094 201.417969 423.355469 242.109375 316.289062 -3.328125 L 205.878906 -3.328125 C 201.5 10.933594 186.753906 -23.625 361.03125 305.058594 C 381.382812 283.386719 397.085938 260.511719 409.621094 233.519531 " fill-opacity="1" fill-rule="nonzero"/></g></g><g clip-path="url(#4c7b191d5c)"><g clip-path="url(#2046dc85a6)"><path fill="#f8b496" d="M 299.25 -3.328125 L -6.761719 -3.328125 L -6.761719 303.964844 C 16.886719 337.960938 61.460938 361.011719 100.253906 379.203125 L 207.144531 379.203125 C 207.679688 370.402344 205.855469 381.378906 234.917969 235.710938 C 283.089844 188.578125 246.46875 116.203125 246.46875 116.203125 C 235.953125 79.628906 281.117188 83.34375 281.117188 83.34375 C 297.855469 69.097656 288.664062 50.515625 288.664062 50.515625 C 288.664062 50.515625 298.992188 23.453125 299.25 -3.328125 " fill-opacity="1" fill-rule="nonzero"/></g></g><g clip-path="url(#1cac86b0e2)"><g clip-path="url(#f635957873)"><path fill="#f8b496" d="M 403.34375 246.082031 C 374.832031 241.246094 353.511719 265.027344 353.511719 265.027344 L 309.429688 349.988281 C 349.308594 321.109375 381.109375 288.191406 403.34375 246.082031 " fill-opacity="1" fill-rule="nonzero"/></g></g><g clip-path="url(#24f818ed56)"><g clip-path="url(#d2cab37c06)"><path fill="#ee9e81" d="M 2.261719 244.050781 C 2.261719 244.050781 2.4375 243.855469 2.769531 243.492188 C 3.113281 243.144531 3.59375 242.597656 4.246094 241.972656 C 4.890625 241.335938 5.667969 240.554688 6.59375 239.699219 C 7.058594 239.277344 7.550781 238.828125 8.070312 238.355469 C 8.566406 237.863281 9.082031 237.347656 9.621094 236.8125 C 10.699219 235.753906 11.871094 234.632812 13.125 233.484375 C 14.394531 232.367188 15.636719 230.992188 17.003906 229.734375 C 18.347656 228.433594 19.785156 227.164062 21.15625 225.75 C 22.542969 224.359375 23.992188 223 25.4375 221.625 C 26.84375 220.214844 28.238281 218.792969 29.671875 217.441406 C 31.105469 216.097656 32.457031 214.707031 33.808594 213.394531 C 35.140625 212.070312 36.519531 210.871094 37.746094 209.644531 C 38.992188 208.429688 40.195312 207.308594 41.328125 206.285156 C 42.464844 205.257812 43.511719 204.320312 44.441406 203.484375 C 45.367188 202.648438 46.21875 201.949219 46.910156 201.367188 C 47.597656 200.777344 48.1875 200.351562 48.5625 200.039062 C 48.960938 199.742188 49.171875 199.585938 49.171875 199.585938 C 49.171875 199.585938 49.066406 199.824219 48.875 200.277344 C 48.667969 200.71875 48.390625 201.390625 47.976562 202.195312 C 47.566406 203.007812 47.082031 204.007812 46.484375 205.117188 C 45.894531 206.238281 45.191406 207.472656 44.355469 208.78125 C 43.527344 210.085938 42.613281 211.492188 41.613281 212.964844 C 40.625 214.4375 39.453125 215.894531 38.261719 217.421875 C 37.054688 218.9375 35.828125 220.519531 34.414062 221.984375 C 33.042969 223.496094 31.601562 224.976562 30.164062 226.46875 C 28.636719 227.871094 27.105469 229.273438 25.558594 230.605469 C 24.0625 231.984375 22.417969 233.167969 20.847656 234.324219 C 20.058594 234.890625 19.292969 235.464844 18.523438 236 C 17.761719 236.53125 17.015625 237.066406 16.21875 237.511719 C 14.667969 238.441406 13.1875 239.285156 11.816406 240.042969 C 11.125 240.410156 10.480469 240.789062 9.839844 241.089844 C 9.195312 241.371094 8.582031 241.636719 8.003906 241.886719 C 6.855469 242.378906 5.8125 242.765625 4.96875 243.09375 C 4.128906 243.4375 3.4375 243.648438 2.980469 243.820312 C 2.511719 243.972656 2.261719 244.050781 2.261719 244.050781 " fill-opacity="1" fill-rule="nonzero"/></g></g><g clip-path="url(#439a1ecc2b)"><g clip-path="url(#62a232f4a4)"><path fill="#ef5e6f" d="M 247.585938 121.984375 C 247.585938 121.984375 248.242188 122.929688 249.476562 124.707031 C 249.78125 125.152344 250.117188 125.648438 250.492188 126.203125 C 250.847656 126.769531 251.230469 127.386719 251.640625 128.058594 C 252.058594 128.730469 252.503906 129.460938 252.984375 130.234375 C 253.449219 131.011719 253.878906 131.863281 254.371094 132.761719 C 256.339844 136.324219 258.5 140.820312 260.460938 146.214844 C 262.425781 151.601562 264.171875 157.910156 265.222656 164.992188 C 265.792969 168.535156 266.046875 172.269531 266.214844 176.15625 C 266.214844 178.09375 266.292969 180.078125 266.160156 182.089844 C 266.113281 183.097656 266.0625 184.105469 266.015625 185.132812 C 265.921875 186.152344 265.828125 187.175781 265.734375 188.210938 C 264.871094 196.480469 262.804688 205.167969 259.238281 213.640625 C 255.667969 222.105469 250.640625 230.402344 244.046875 237.628906 C 240.761719 241.242188 237.167969 244.660156 233.203125 247.667969 C 229.257812 250.695312 224.972656 253.332031 220.492188 255.570312 C 211.488281 259.957031 201.621094 262.703125 191.796875 263.25 C 181.976562 263.953125 172.324219 262.597656 163.511719 260.070312 C 154.699219 257.472656 146.699219 253.703125 139.664062 249.433594 C 132.640625 245.132812 126.546875 240.359375 121.296875 235.632812 C 116.042969 230.894531 111.6875 226.144531 107.972656 221.855469 C 104.304688 217.507812 101.351562 213.550781 99.015625 210.242188 C 97.851562 208.585938 96.824219 207.101562 95.957031 205.789062 C 95.117188 204.460938 94.40625 203.328125 93.828125 202.40625 C 92.695312 200.566406 92.097656 199.585938 92.097656 199.585938 C 92.097656 199.585938 92.910156 200.398438 94.441406 201.929688 C 95.199219 202.695312 96.125 203.644531 97.222656 204.757812 C 98.359375 205.835938 99.640625 207.082031 101.058594 208.492188 C 103.925781 211.285156 107.527344 214.535156 111.6875 218.167969 C 115.910156 221.726562 120.695312 225.667969 126.195312 229.507812 C 131.691406 233.347656 137.832031 237.167969 144.585938 240.503906 C 151.34375 243.835938 158.742188 246.617188 166.542969 248.445312 C 170.457031 249.300781 174.453125 249.941406 178.511719 250.273438 C 179.523438 250.320312 180.542969 250.375 181.5625 250.429688 C 182.582031 250.492188 183.605469 250.433594 184.625 250.445312 C 185.648438 250.476562 186.671875 250.425781 187.691406 250.367188 C 188.71875 250.316406 189.746094 250.289062 190.765625 250.15625 C 198.949219 249.429688 207.050781 247.121094 214.492188 243.4375 C 221.980469 239.824219 228.703125 234.671875 234.429688 228.714844 C 237.265625 225.710938 239.894531 222.53125 242.210938 219.164062 C 244.519531 215.792969 246.535156 212.273438 248.332031 208.699219 C 251.847656 201.515625 254.269531 194.039062 255.691406 186.726562 C 256.46875 183.078125 256.832031 179.457031 257.183594 175.9375 C 257.429688 172.417969 257.546875 168.980469 257.441406 165.679688 C 257.285156 159.0625 256.496094 152.972656 255.445312 147.613281 C 254.378906 142.257812 253.171875 137.585938 251.910156 133.816406 C 251.316406 131.90625 250.707031 130.246094 250.191406 128.785156 C 249.929688 128.050781 249.691406 127.371094 249.46875 126.75 C 249.21875 126.128906 248.992188 125.574219 248.792969 125.074219 C 248.003906 123.058594 247.585938 121.984375 247.585938 121.984375 " fill-opacity="1" fill-rule="nonzero"/></g></g><g clip-path="url(#e76894db98)"><g clip-path="url(#a33988a8f8)"><path fill="#ee9e81" d="M 204.6875 189.25 C 204.257812 199.929688 199.03125 195.28125 187.496094 202.679688 C 176.949219 209.453125 168.066406 191.203125 171.988281 181.941406 C 174.226562 176.640625 183.347656 167.386719 188.070312 171 C 198.53125 178.980469 205.050781 180.097656 204.6875 189.25 " fill-opacity="1" fill-rule="nonzero"/></g></g><g clip-path="url(#0acb98d598)"><g clip-path="url(#259c2418f6)"><path fill="#e19579" d="M 194.863281 189.273438 C 194.863281 198.261719 181.285156 198.265625 181.285156 189.273438 C 181.285156 180.316406 194.863281 180.296875 194.863281 189.273438 " fill-opacity="1" fill-rule="nonzero"/></g></g><g clip-path="url(#5ed0406905)"><g clip-path="url(#56bc38a31a)"><path fill="#ee9e81" d="M 65.324219 235.363281 C 65.339844 274.824219 66.441406 314.269531 66.988281 353.722656 C 67.050781 358.085938 73.820312 358.09375 73.761719 353.722656 C 73.210938 314.269531 72.113281 274.824219 72.097656 235.363281 C 72.09375 230.992188 65.324219 230.992188 65.324219 235.363281 " fill-opacity="1" fill-rule="nonzero"/></g></g><path fill="#e14d7e" d="M 368.226562 187.5 L 361.453125 187.5 C 361.449219 235.558594 341.992188 279 310.503906 310.503906 C 279 341.996094 235.554688 361.453125 187.496094 361.457031 C 139.4375 361.453125 95.992188 341.996094 64.496094 310.503906 C 33.003906 279 13.550781 235.558594 13.546875 187.5 C 13.550781 139.441406 33.003906 95.996094 64.496094 64.492188 C 95.992188 33.003906 139.4375 13.546875 187.496094 13.542969 C 235.554688 13.546875 279 33.003906 310.503906 64.492188 C 341.992188 95.996094 361.449219 139.441406 361.453125 187.5 L 374.992188 187.5 C 375 135.742188 353.996094 88.828125 320.074219 54.917969 C 286.164062 21 239.25 0 187.496094 0.00390625 C 135.742188 0 88.824219 21 54.917969 54.917969 C 21 88.828125 0 135.742188 0.00390625 187.5 C 0 239.25 21 286.167969 54.917969 320.078125 C 88.824219 354 135.742188 375 187.496094 375 C 239.25 375 286.164062 354 320.074219 320.078125 C 353.996094 286.167969 375 239.25 374.992188 187.5 L 368.226562 187.5 " fill-opacity="1" fill-rule="nonzero"/></svg>